<?xml version="1.0" encoding="UTF-8"?>
<svg width="796px" height="3850px" viewBox="0 0 796 3850" version="1.1" xmlns="http://www.w3.org/2000/svg" xmlns:xlink="http://www.w3.org/1999/xlink">
    <!-- Generator: Sketch 41.2 (35397) - http://www.bohemiancoding.com/sketch -->
    <title>文殊院SVG</title>
    <desc>Created with Sketch.</desc>
    <defs></defs>
    <g id="Page-1" stroke="none" stroke-width="1" fill="none" fill-rule="evenodd">
        <g id="文殊院SVG" transform="translate(398.000000, 1925.000000) rotate(90.000000) translate(-398.000000, -1925.000000) translate(-1527.000000, 1527.000000)">
            <rect id="Rectangle-path" fill="#FFFFFF" x="0" y="0" width="3849.277" height="795.493"></rect>
            <polygon id="Shape" fill="#F4F3F2" points="3729.12 86.087 3729.12 556.08 2961 555.96 2961 616.68 3029.76 616.68 3029.76 718.56 2855.28 718.56 2855.28 567.48 2373.6 567.48 2373.6 556.08 129.92 556.08 129.92 117.84 136.36 117.84 136.36 52.44 333.24 52.44 333.24 116.84 2490.24 118.08 2490.51 106.44 3085.2 106.44 3085.2 117.84 3443.56 117.84 3443.56 86.4"></polygon>
            <polygon id="Shape" fill="#CCE9C8" points="489.34 116.93 489.34 239.92 404.12 239.92 404.12 295.2 458.28 295.2 458.28 400.8 665.76 400.8 665.76 397.17 698.76 429.96 1244.04 429.96 1277.04 398.139 1277.04 400.8 1484.52 400.42 1484.52 378.72 1539.26 378.72 1540.093 117.534"></polygon>
            <polygon id="Shape" fill="#DDDDDD" points="1819.44 118.32 1819.44 457.2 2426.76 457.2 2426.88 326.88 2567.093 326.88 2567.4 385.5 2743.32 385.08 2743.32 457.2 3652.08 457.2 3652.08 86.14 3443.56 86.4 3443.56 117.84 3085.2 117.84 3085.2 106.44 2490.51 106.44 2490.24 118.08"></polygon>
            <polygon id="Shape" stroke="#9B9B9B" stroke-width="2" points="1819.44 118.32 1819.44 457.2 2426.76 457.2 2426.88 326.88 2567.093 326.88 2567.4 385.5 2743.32 385.08 2743.32 457.2 3652.08 457.2 3652.08 86.14 3443.56 86.4 3443.56 117.84 3085.2 117.84 3085.2 106.44 2490.51 106.44 2490.24 118.08"></polygon>
            <polygon id="Shape" fill="#DDDDDD" points="1484.52 378.72 1484.52 400.8 1277.04 400.8 1277.04 398.139 1276.695 398.136 1244.04 429.96 1132.68 429.96 1132.68 426.608 1242.948 426.608 1274.01 396.24 1479.135 396.045 1479.36 378.72"></polygon>
            <polygon id="Shape" stroke="#9B9B9B" stroke-width="2" points="1484.52 378.72 1484.52 400.8 1277.04 400.8 1277.04 398.139 1276.695 398.136 1244.04 429.96 1132.68 429.96 1132.68 426.608 1242.948 426.608 1274.01 396.24 1479.135 396.045 1479.36 378.72"></polygon>
            <polygon id="Shape" fill="#DDDDDD" points="1060.32 426.608 888 426.67 888 430.08 1060.32 430.08"></polygon>
            <polygon id="Shape" stroke="#9B9B9B" stroke-width="2" points="1060.32 426.608 888 426.67 888 430.08 1060.32 430.08"></polygon>
            <polygon id="Shape" fill="#DDDDDD" points="815.76 426.587 815.76 429.96 698.76 429.96 666.48 397.8 665.76 397.8 665.76 400.8 458.28 400.8 458.28 378.72 463.64 378.72 463.64 392.087 665.76 392.04 665.76 395.753 669.093 395.753 700.01 426.92"></polygon>
            <polygon id="Shape" stroke="#9B9B9B" stroke-width="2" points="815.76 426.587 815.76 429.96 698.76 429.96 666.48 397.8 665.76 397.8 665.76 400.8 458.28 400.8 458.28 378.72 463.64 378.72 463.64 392.087 665.76 392.04 665.76 395.753 669.093 395.753 700.01 426.92"></polygon>
            <polygon id="Shape" fill="#C5E8FF" points="1478.88 295.2 1538.4 295.2 1538.4 378.72 1479.36 378.72"></polygon>
            <polygon id="Shape" stroke="#699FBC" stroke-width="2" points="1478.88 295.2 1538.4 295.2 1538.4 378.72 1479.36 378.72"></polygon>
            <polygon id="Shape" fill="#C5E8FF" points="404.12 295.2 463.64 295.2 463.64 378.72 404.6 378.72"></polygon>
            <polygon id="Shape" stroke="#699FBC" stroke-width="2" points="404.12 295.2 463.64 295.2 463.64 378.72 404.6 378.72"></polygon>
            <rect id="Rectangle-path" fill="#C5E8FF" x="1338.36" y="423.48" width="22.8" height="20.28"></rect>
            <rect id="Rectangle-path" stroke="#699FBC" stroke-width="2" x="1338.36" y="423.48" width="22.8" height="20.28"></rect>
            <rect id="Rectangle-path" fill="#C5E8FF" x="1371.21" y="423.48" width="22.8" height="20.28"></rect>
            <rect id="Rectangle-path" stroke="#699FBC" stroke-width="2" x="1371.21" y="423.48" width="22.8" height="20.28"></rect>
            <rect id="Rectangle-path" fill="#C5E8FF" x="1404.21" y="423.48" width="22.8" height="20.28"></rect>
            <rect id="Rectangle-path" stroke="#699FBC" stroke-width="2" x="1404.21" y="423.48" width="22.8" height="20.28"></rect>
            <rect id="Rectangle-path" fill="#C5E8FF" x="1436.96" y="423.48" width="22.8" height="20.28"></rect>
            <rect id="Rectangle-path" stroke="#699FBC" stroke-width="2" x="1436.96" y="423.48" width="22.8" height="20.28"></rect>
            <rect id="Rectangle-path" fill="#C5E8FF" x="503.16" y="423.48" width="22.68" height="20.28"></rect>
            <rect id="Rectangle-path" stroke="#699FBC" stroke-width="2" x="503.16" y="423.48" width="22.68" height="20.28"></rect>
            <rect id="Rectangle-path" fill="#C5E8FF" x="536.08" y="423.48" width="22.68" height="20.28"></rect>
            <rect id="Rectangle-path" stroke="#699FBC" stroke-width="2" x="536.08" y="423.48" width="22.68" height="20.28"></rect>
            <rect id="Rectangle-path" fill="#C5E8FF" x="569.08" y="423.48" width="22.68" height="20.28"></rect>
            <rect id="Rectangle-path" stroke="#699FBC" stroke-width="2" x="569.08" y="423.48" width="22.68" height="20.28"></rect>
            <rect id="Rectangle-path" fill="#C5E8FF" x="602.247" y="423.48" width="22.68" height="20.28"></rect>
            <rect id="Rectangle-path" stroke="#699FBC" stroke-width="2" x="602.247" y="423.48" width="22.68" height="20.28"></rect>
            <rect id="Rectangle-path" fill="#9EDEEB" x="478.2" y="435.12" width="13.08" height="8.64"></rect>
            <rect id="Rectangle-path" stroke="#85BEC6" stroke-width="2" x="478.2" y="435.12" width="13.08" height="8.64"></rect>
            <rect id="Rectangle-path" stroke="#9488D3" stroke-width="2" fill="#EEE9FF" x="1778.4" y="357.24" width="25.32" height="25.32"></rect>
            <rect id="Rectangle-path" stroke="#9488D3" stroke-width="2" fill="#EEE9FF" x="1778.4" y="387.475" width="25.32" height="25.32"></rect>
            <rect id="Rectangle-path" stroke="#9488D3" stroke-width="2" fill="#EEE9FF" x="130.72" y="223.68" width="25.32" height="25.32"></rect>
            <rect id="Rectangle-path" stroke="#9488D3" stroke-width="2" fill="#EEE9FF" x="130.72" y="254.1" width="25.32" height="25.32"></rect>
            <rect id="Rectangle-path" stroke="#C4C476" stroke-width="2" fill="#FCFDD8" x="1783.92" y="336.96" width="15.24" height="15.24"></rect>
            <rect id="Rectangle-path" stroke="#C4C476" stroke-width="2" fill="#FCFDD8" x="143.64" y="352.2" width="15.24" height="15.12"></rect>
            <rect id="Rectangle-path" fill="#DDDDDD" x="487.92" y="116.93" width="2.84" height="15.071"></rect>
            <rect id="Rectangle-path" stroke="#9B9B9B" stroke-width="2" x="487.92" y="116.93" width="2.84" height="15.071"></rect>
            <polygon id="Shape" fill="#DDDDDD" points="679.427 272.42 679.427 263.52 458.28 263.52 458.28 294.6 465.64 294.6 465.64 272.46"></polygon>
            <polygon id="Shape" stroke="#9B9B9B" stroke-width="2" points="679.427 272.42 679.427 263.52 458.28 263.52 458.28 294.6 465.64 294.6 465.64 272.46"></polygon>
            <polygon id="Shape" fill="#DDDDDD" points="1262.16 263.52 1484.52 263.52 1484.52 295.2 1477.68 295.2 1477.177 272.46 1262.16 272.4"></polygon>
            <polygon id="Shape" stroke="#9B9B9B" stroke-width="2" points="1262.16 263.52 1484.52 263.52 1484.52 295.2 1477.68 295.2 1477.177 272.46 1262.16 272.4"></polygon>
            <rect id="Rectangle-path" fill="#DCEFAF" x="815.76" y="405.36" width="7.56" height="50.52"></rect>
            <rect id="Rectangle-path" stroke="#A4B574" stroke-width="2" x="815.76" y="405.36" width="7.56" height="50.52"></rect>
            <rect id="Rectangle-path" fill="#DCEFAF" x="837.2" y="405.36" width="7.56" height="50.52"></rect>
            <rect id="Rectangle-path" stroke="#A4B574" stroke-width="2" x="837.2" y="405.36" width="7.56" height="50.52"></rect>
            <rect id="Rectangle-path" fill="#DCEFAF" x="858.825" y="405.36" width="7.56" height="50.52"></rect>
            <rect id="Rectangle-path" stroke="#A4B574" stroke-width="2" x="858.825" y="405.36" width="7.56" height="50.52"></rect>
            <rect id="Rectangle-path" fill="#DCEFAF" x="880.44" y="405.36" width="7.56" height="50.52"></rect>
            <rect id="Rectangle-path" stroke="#A4B574" stroke-width="2" x="880.44" y="405.36" width="7.56" height="50.52"></rect>
            <rect id="Rectangle-path" fill="#DCEFAF" x="1060.32" y="405.36" width="7.56" height="50.52"></rect>
            <rect id="Rectangle-path" stroke="#A4B574" stroke-width="2" x="1060.32" y="405.36" width="7.56" height="50.52"></rect>
            <rect id="Rectangle-path" fill="#DCEFAF" x="1081.76" y="405.36" width="7.56" height="50.52"></rect>
            <rect id="Rectangle-path" stroke="#A4B574" stroke-width="2" x="1081.76" y="405.36" width="7.56" height="50.52"></rect>
            <rect id="Rectangle-path" fill="#DCEFAF" x="1103.385" y="405.36" width="7.56" height="50.52"></rect>
            <rect id="Rectangle-path" stroke="#A4B574" stroke-width="2" x="1103.385" y="405.36" width="7.56" height="50.52"></rect>
            <rect id="Rectangle-path" fill="#DCEFAF" x="1125" y="405.36" width="7.56" height="50.52"></rect>
            <rect id="Rectangle-path" stroke="#A4B574" stroke-width="2" x="1125" y="405.36" width="7.56" height="50.52"></rect>
            <rect id="Rectangle-path" fill="#DCEFAF" x="462.6" y="239.52" width="50.64" height="7.56"></rect>
            <rect id="Rectangle-path" stroke="#A4B574" stroke-width="2" x="462.6" y="239.52" width="50.64" height="7.56"></rect>
            <rect id="Rectangle-path" fill="#DCEFAF" x="462.6" y="218.17" width="50.64" height="7.56"></rect>
            <rect id="Rectangle-path" stroke="#A4B574" stroke-width="2" x="462.6" y="218.17" width="50.64" height="7.56"></rect>
            <rect id="Rectangle-path" fill="#DCEFAF" x="462.6" y="196.46" width="50.64" height="7.56"></rect>
            <rect id="Rectangle-path" stroke="#A4B574" stroke-width="2" x="462.6" y="196.46" width="50.64" height="7.56"></rect>
            <rect id="Rectangle-path" fill="#DCEFAF" x="462.6" y="175.11" width="50.64" height="7.56"></rect>
            <rect id="Rectangle-path" stroke="#A4B574" stroke-width="2" x="462.6" y="175.11" width="50.64" height="7.56"></rect>
            <rect id="Rectangle-path" fill="#DCEFAF" x="462.6" y="153.35" width="50.64" height="7.56"></rect>
            <rect id="Rectangle-path" stroke="#A4B574" stroke-width="2" x="462.6" y="153.35" width="50.64" height="7.56"></rect>
            <rect id="Rectangle-path" fill="#DCEFAF" x="462.6" y="132" width="50.64" height="7.56"></rect>
            <rect id="Rectangle-path" stroke="#A4B574" stroke-width="2" x="462.6" y="132" width="50.64" height="7.56"></rect>
            <rect id="Rectangle-path" fill="#DCEFAF" x="1518.44" y="239.52" width="50.64" height="7.56"></rect>
            <rect id="Rectangle-path" stroke="#A4B574" stroke-width="2" x="1518.44" y="239.52" width="50.64" height="7.56"></rect>
            <rect id="Rectangle-path" fill="#DCEFAF" x="1518.44" y="218.17" width="50.64" height="7.56"></rect>
            <rect id="Rectangle-path" stroke="#A4B574" stroke-width="2" x="1518.44" y="218.17" width="50.64" height="7.56"></rect>
            <rect id="Rectangle-path" fill="#DCEFAF" x="1518.44" y="196.46" width="50.64" height="7.56"></rect>
            <rect id="Rectangle-path" stroke="#A4B574" stroke-width="2" x="1518.44" y="196.46" width="50.64" height="7.56"></rect>
            <rect id="Rectangle-path" fill="#DCEFAF" x="1518.44" y="175.11" width="50.64" height="7.56"></rect>
            <rect id="Rectangle-path" stroke="#A4B574" stroke-width="2" x="1518.44" y="175.11" width="50.64" height="7.56"></rect>
            <rect id="Rectangle-path" fill="#DCEFAF" x="1518.44" y="153.35" width="50.64" height="7.56"></rect>
            <rect id="Rectangle-path" stroke="#A4B574" stroke-width="2" x="1518.44" y="153.35" width="50.64" height="7.56"></rect>
            <rect id="Rectangle-path" fill="#DCEFAF" x="1518.44" y="132" width="50.64" height="7.56"></rect>
            <rect id="Rectangle-path" stroke="#A4B574" stroke-width="2" x="1518.44" y="132" width="50.64" height="7.56"></rect>
            <polygon id="Shape" fill="#DDDDDD" points="404.12 295.2 404.12 239.92 462.6 239.92 462.6 242.92 406.843 242.962 406.843 295.17"></polygon>
            <polygon id="Shape" stroke="#9B9B9B" stroke-width="2" points="404.12 295.2 404.12 239.92 462.6 239.92 462.6 242.92 406.843 242.962 406.843 295.17"></polygon>
            <rect id="Rectangle-path" fill="#DDDDDD" x="1540.92" y="117.534" width="2.84" height="14.466"></rect>
            <rect id="Rectangle-path" stroke="#9B9B9B" stroke-width="2" x="1540.92" y="117.534" width="2.84" height="14.466"></rect>
            <rect id="Rectangle-path" fill="#DDDDDD" x="1535.641" y="247.08" width="2.642" height="48.12"></rect>
            <rect id="Rectangle-path" stroke="#9B9B9B" stroke-width="2" x="1535.641" y="247.08" width="2.642" height="48.12"></rect>
            <polygon id="Shape" fill="#FDE6EC" points="2743.32 457.2 2567.4 457.2 2567.264 385.5 2743.32 385.08"></polygon>
            <polygon id="Shape" stroke="#DB95AB" stroke-width="2" points="2743.32 457.2 2567.4 457.2 2567.264 385.5 2743.32 385.08"></polygon>
            <rect id="Rectangle-path" fill="#FDE5C6" x="930.84" y="293.88" width="86.64" height="86.16"></rect>
            <rect id="Rectangle-path" stroke="#BF9D77" stroke-width="2" x="930.84" y="293.88" width="86.64" height="86.16"></rect>
            <rect id="Rectangle-path" fill="#FDE5C6" x="1262.52" y="349.68" width="214.657" height="45.48"></rect>
            <rect id="Rectangle-path" stroke="#BF9D77" stroke-width="2" x="1262.52" y="349.68" width="214.657" height="45.48"></rect>
            <rect id="Rectangle-path" fill="#FDE5C6" x="1250.76" y="272.46" width="226.417" height="49.86"></rect>
            <rect id="Rectangle-path" stroke="#BF9D77" stroke-width="2" x="1250.76" y="272.46" width="226.417" height="49.86"></rect>
            <rect id="Rectangle-path" fill="#FDE5C6" x="465.64" y="272.46" width="226.417" height="49.86"></rect>
            <rect id="Rectangle-path" stroke="#BF9D77" stroke-width="2" x="465.64" y="272.46" width="226.417" height="49.86"></rect>
            <rect id="Rectangle-path" fill="#FDE5C6" x="465.64" y="349.68" width="214.657" height="45.48"></rect>
            <rect id="Rectangle-path" stroke="#BF9D77" stroke-width="2" x="465.64" y="349.68" width="214.657" height="45.48"></rect>
            <polygon id="Shape" fill="#EFEF8F" points="2464.791 326.427 2464.791 431.22 2567.264 431.22 2566.957 326.22"></polygon>
            <polygon id="Shape" stroke="#ADAA3E" stroke-width="2" points="2467.791 326.427 2467.791 431.22 2570.264 431.22 2569.957 326.22"></polygon>
        </g>
    </g>
</svg>